<?xml version="1.0" standalone="no"?>
<!DOCTYPE svg PUBLIC "-//W3C//DTD SVG 20010904//EN"
 "http://www.w3.org/TR/2001/REC-SVG-20010904/DTD/svg10.dtd">
<svg version="1.0" xmlns="http://www.w3.org/2000/svg"
 width="550.000000pt" height="550.000000pt" viewBox="0 0 550.000000 550.000000"
 preserveAspectRatio="xMidYMid meet">
<metadata>
Created by potrace 1.14, written by Peter Selinger 2001-2017
</metadata>
<g transform="translate(0.000000,550.000000) scale(0.100000,-0.100000)"
fill="#000000" stroke="none">
<path d="M2495 4690 c-787 -83 -1413 -651 -1575 -1430 -55 -267 -40 -618 37
-872 l18 -58 106 98 c268 245 1081 1013 1110 1048 8 10 23 45 33 77 24 81 49
105 114 111 62 5 23 -28 456 380 437 412 535 505 538 514 7 19 -282 102 -425
121 -112 16 -319 21 -412 11z"/>
<path d="M3310 4354 c-80 -81 -140 -145 -134 -143 22 7 308 289 294 289 -8 0
-80 -66 -160 -146z"/>
<path d="M3544 4398 l-29 -33 33 29 c30 28 37 36 29 36 -2 0 -16 -15 -33 -32z"/>
<path d="M3516 4335 c-42 -47 -73 -85 -68 -85 6 0 23 15 39 33 16 19 36 37 44
42 8 4 -11 -19 -42 -51 -30 -32 -80 -88 -111 -124 -52 -62 -735 -745 -770
-772 -10 -7 -19 -26 -22 -43 -8 -54 -25 -169 -30 -207 -2 -21 -2 -38 2 -38 15
0 122 116 122 132 0 34 42 129 63 143 12 7 44 16 70 19 27 2 60 13 75 22 15
10 117 103 227 208 110 105 275 261 365 346 91 85 202 190 246 232 l81 77 -21
19 c-35 32 -174 132 -183 132 -5 0 -44 -38 -87 -85z m-626 -708 c0 -1 -28 -29
-62 -62 l-63 -60 60 63 c55 58 65 67 65 59z m-130 -130 c0 -1 -39 -41 -87 -87
-48 -47 -71 -67 -52 -45 48 56 139 142 139 132z"/>
<path d="M3870 3857 c-91 -90 -310 -305 -488 -478 -250 -244 -324 -322 -327
-345 -3 -16 -7 -44 -10 -61 -20 -119 -84 -726 -130 -1228 -13 -148 -32 -350
-41 -447 -10 -98 -14 -181 -11 -184 4 -4 58 3 122 15 545 102 1020 465 1264
964 278 570 243 1244 -92 1772 -55 86 -107 155 -116 155 -3 0 -80 -73 -171
-163z m-282 -304 c-12 -16 -43 -46 -68 -68 -29 -25 -23 -16 20 28 67 70 88 87
48 40z m-213 -214 c-44 -44 -134 -130 -200 -191 -66 -61 -32 -25 75 80 107
105 197 191 200 191 2 1 -31 -35 -75 -80z"/>
<path d="M2040 2815 c-47 -47 -80 -85 -75 -85 5 0 -29 -38 -75 -85 -47 -47
-90 -83 -96 -81 -13 5 -67 -47 -59 -56 7 -6 -273 -278 -326 -318 -20 -14 -87
-74 -148 -131 l-111 -105 34 -53 33 -53 39 33 c21 19 106 95 187 169 82 74
188 171 237 215 216 196 419 389 425 403 3 8 8 60 10 114 3 55 7 104 10 109
14 21 -5 5 -85 -76z m70 52 c0 -1 -33 -34 -72 -72 l-73 -70 70 73 c64 67 75
77 75 69z m-325 -326 c-3 -6 -16 -16 -28 -22 -21 -11 -21 -10 2 15 23 25 40
29 26 7z"/>
<path d="M2585 2570 c-3 -6 -14 -9 -23 -8 -9 2 -17 -1 -17 -7 -1 -17 -16 -36
-25 -30 -9 6 -22 -10 -28 -35 -10 -41 -34 -257 -62 -550 -26 -280 -39 -413
-76 -756 l-6 -61 80 -9 81 -10 5 36 c3 19 8 76 11 125 3 50 12 189 21 310 9
121 17 306 17 410 1 105 4 170 8 145 5 -43 5 -43 10 22 2 36 0 64 -4 61 -9 -5
-3 120 13 282 7 83 7 94 -5 75z m-28 -607 c-2 -16 -4 -3 -4 27 0 30 2 43 4 28
2 -16 2 -40 0 -55z m-10 -130 c-2 -16 -4 -3 -4 27 0 30 2 43 4 28 2 -16 2 -40
0 -55z m-10 -125 c-2 -13 -4 -3 -4 22 0 25 2 35 4 23 2 -13 2 -33 0 -45z m-6
-103 c-8 -46 -9 -47 -10 -13 -1 34 8 73 15 66 2 -2 -1 -26 -5 -53z m-11 -132
c-11 -17 -11 -17 -6 0 3 10 7 28 7 40 2 22 2 22 6 0 2 -12 -1 -30 -7 -40z"/>
<path d="M2592 2400 c0 -14 2 -19 5 -12 2 6 2 18 0 25 -3 6 -5 1 -5 -13z"/>
<path d="M2581 2264 c0 -11 3 -14 6 -6 3 7 2 16 -1 19 -3 4 -6 -2 -5 -13z"/>
<path d="M2070 2071 c0 -5 -8 -11 -19 -13 -17 -3 -63 -43 -341 -303 -47 -44
-116 -106 -153 -138 -37 -32 -67 -62 -67 -66 0 -11 114 -102 209 -165 95 -63
306 -170 320 -161 5 3 9 35 10 73 0 57 27 452 48 705 3 42 3 77 -1 77 -3 0 -6
-4 -6 -9z m-13 -108 c-2 -16 -4 -5 -4 22 0 28 2 40 4 28 2 -13 2 -35 0 -50z
m-10 -135 c-2 -13 -4 -3 -4 22 0 25 2 35 4 23 2 -13 2 -33 0 -45z m-10 -165
c-2 -21 -4 -6 -4 32 0 39 2 55 4 38 2 -18 2 -50 0 -70z"/>
<path d="M2211 1200 c1 -42 1 -43 9 -16 6 17 5 36 0 45 -7 11 -9 3 -9 -29z"/>
</g>
</svg>
