<?xml version="1.0" standalone="no"?>
<!DOCTYPE svg PUBLIC "-//W3C//DTD SVG 20010904//EN"
 "http://www.w3.org/TR/2001/REC-SVG-20010904/DTD/svg10.dtd">
<svg version="1.0" xmlns="http://www.w3.org/2000/svg"
 width="550.000000pt" height="550.000000pt" viewBox="0 0 550.000000 550.000000"
 preserveAspectRatio="xMidYMid meet">
<metadata>
Created by potrace 1.14, written by Peter Selinger 2001-2017
</metadata>
<g transform="translate(0.000000,550.000000) scale(0.100000,-0.100000)"
fill="#000000" stroke="none">
<path d="M4191 5170 c-17 -17 -31 -35 -31 -40 0 -6 -4 -9 -9 -7 -8 2 -206
-185 -514 -485 -60 -60 -114 -108 -118 -108 -12 0 -113 -104 -111 -113 1 -5
-1 -6 -6 -3 -5 3 -44 -30 -86 -73 -42 -43 -76 -77 -76 -75 0 2 -11 -8 -25 -21
-13 -14 -30 -25 -37 -24 -7 0 -3 5 9 11 13 6 25 19 28 29 4 11 11 19 16 19 15
0 101 89 95 99 -3 5 2 8 12 7 10 0 16 5 14 14 -2 8 -1 12 3 8 10 -10 76 62 68
74 -3 7 -1 8 5 4 7 -4 23 4 37 18 26 26 33 42 13 30 -7 -5 -8 -3 -4 5 5 7 13
10 20 8 6 -3 17 2 24 9 7 8 8 14 2 14 -5 0 -10 5 -10 11 0 6 7 9 15 5 8 -3 14
-2 14 2 -4 22 2 42 11 37 5 -3 7 0 4 8 -3 8 0 18 7 23 8 5 10 3 4 -5 -11 -20
28 4 46 26 12 16 11 16 -9 -1 -33 -28 -35 -16 -4 24 23 29 42 73 24 55 -4 -4
-7 -12 -7 -18 0 -14 -45 -10 -60 5 -7 6 -3 9 10 7 24 -4 70 25 61 39 -8 14 23
44 36 36 7 -4 8 -2 4 4 -10 17 -32 3 -114 -74 -40 -36 -69 -71 -65 -77 3 -5 1
-7 -4 -4 -6 4 -32 -13 -58 -38 -25 -25 -51 -45 -56 -45 -5 0 -9 -5 -9 -11 0
-7 -12 -9 -32 -6 -28 5 -30 4 -12 -5 21 -10 19 -13 -38 -67 -34 -31 -94 -87
-134 -126 -40 -38 -100 -94 -134 -124 -51 -46 -58 -56 -48 -70 11 -14 11 -14
-3 -4 -13 11 -33 -4 -129 -97 -63 -61 -117 -110 -120 -110 -4 0 -13 -11 -20
-25 -7 -13 -16 -22 -20 -20 -4 3 -21 -10 -37 -28 -17 -17 -55 -56 -87 -84 -31
-29 -56 -58 -56 -65 0 -6 -3 -8 -6 -5 -4 4 -21 -8 -38 -26 -17 -19 -37 -32
-44 -29 -6 2 -12 -2 -12 -10 0 -9 -15 -13 -55 -11 -31 0 -53 -3 -49 -8 3 -5
-1 -9 -9 -9 -12 0 -52 -70 -52 -91 0 -4 -3 -11 -8 -15 -4 -4 -7 -17 -7 -28 0
-17 -81 -116 -94 -116 -2 0 -28 -24 -57 -52 -30 -29 -75 -71 -101 -94 -26 -23
-44 -45 -41 -48 4 -3 1 -6 -4 -6 -6 0 -27 -15 -46 -32 -18 -18 -74 -71 -123
-118 -50 -47 -152 -143 -229 -215 -76 -71 -160 -150 -186 -175 -26 -25 -83
-77 -126 -117 -43 -40 -109 -102 -148 -138 -74 -68 -81 -73 -88 -52 -2 6 -3 4
-1 -6 3 -20 -20 -44 -146 -157 -46 -41 -94 -84 -106 -95 -12 -11 -50 -45 -85
-75 -35 -30 -72 -64 -84 -75 -11 -11 -61 -53 -110 -94 -90 -73 -155 -137 -155
-150 0 -17 46 -51 56 -41 7 7 18 3 34 -12 27 -25 29 -26 41 -7 4 8 11 10 15 7
4 -4 -1 -19 -10 -33 -15 -23 -15 -25 0 -25 12 0 14 -4 7 -12 -23 -29 -1 -60
23 -35 15 15 26 6 13 -10 -13 -15 -12 -15 9 -4 20 11 26 8 23 -11 0 -4 7 -4
16 -1 10 4 14 2 10 -4 -4 -6 1 -10 11 -9 9 0 16 -5 15 -11 -2 -7 2 -13 7 -13
6 0 10 5 10 11 0 5 4 8 9 4 13 -7 161 73 161 88 0 4 7 7 15 7 8 0 15 3 15 8 0
4 13 16 29 27 16 10 27 23 25 27 -3 4 1 8 9 8 7 0 23 10 34 23 11 12 44 42 73
67 29 25 65 56 80 70 79 74 133 120 141 120 5 0 9 4 9 10 0 15 51 61 61 54 5
-3 8 -2 7 3 -4 11 149 162 196 193 20 14 36 31 36 38 0 6 5 12 10 12 14 0 156
140 153 151 -2 5 0 8 5 8 22 -4 34 3 29 15 -4 11 -1 13 10 9 13 -5 15 -2 10
11 -4 10 -3 15 3 11 10 -6 70 43 70 57 0 5 -5 6 -12 2 -7 -4 -8 -3 -4 4 4 6
12 9 19 6 18 -6 51 31 41 47 -5 8 -3 10 5 5 13 -8 98 71 94 86 -2 4 2 7 9 5 7
-1 12 3 13 10 0 6 4 15 9 20 5 5 6 3 2 -4 -4 -7 -2 -13 3 -13 10 0 15 14 12
33 -1 5 2 6 7 3 8 -5 102 78 102 91 0 3 -7 0 -15 -7 -9 -7 -17 -11 -19 -9 -2
2 8 13 22 23 14 11 22 14 18 8 -4 -7 -2 -12 3 -12 10 0 15 14 9 24 -6 9 35 45
44 40 11 -7 1 -165 -13 -202 -5 -14 -25 -39 -43 -56 -18 -17 -82 -77 -142
-132 -60 -56 -123 -114 -140 -130 -81 -74 -220 -202 -250 -229 -17 -16 -62
-57 -99 -90 -37 -33 -82 -73 -100 -90 -81 -74 -97 -86 -110 -81 -9 3 -12 0 -9
-8 5 -12 -89 -98 -249 -230 -63 -51 -89 -88 -75 -107 8 -11 9 -10 4 6 -5 16
-1 15 18 -7 14 -16 28 -23 31 -18 3 6 12 10 18 9 9 0 8 -2 -1 -6 -6 -2 -10 -9
-6 -14 3 -5 14 -4 27 3 19 10 20 9 10 -4 -19 -22 -4 -29 23 -11 22 14 24 14
24 -1 0 -9 -3 -16 -8 -16 -4 0 -13 -10 -21 -23 -13 -20 -13 -21 2 -8 20 16 23
1 5 -18 -11 -10 -10 -11 4 -6 13 5 16 2 11 -17 -4 -18 -3 -20 6 -8 9 12 11 12
11 1 0 -11 5 -9 22 5 19 15 20 16 9 2 -15 -20 -2 -25 17 -6 7 7 13 9 13 5 1
-4 3 -11 4 -17 1 -5 3 -16 4 -22 1 -9 4 -8 11 2 8 12 10 8 11 -15 1 -29 1 -30
9 -5 4 14 8 19 9 13 1 -7 5 -13 11 -13 15 0 113 47 135 65 11 8 43 32 70 53
28 20 59 46 71 57 11 11 51 47 89 80 100 88 171 152 239 218 33 31 64 57 69
57 4 0 5 5 2 10 -3 6 0 10 8 10 8 0 25 9 38 20 21 18 22 19 4 14 l-20 -6 20
13 c11 6 50 41 87 76 67 64 90 73 83 30 -10 -55 -14 -211 -5 -197 8 13 10 13
10 -2 0 -9 -5 -18 -12 -20 -6 -2 -12 -12 -14 -21 -1 -9 2 -15 7 -11 5 3 7 10
4 15 -4 5 -2 9 4 9 5 0 9 -16 8 -35 -1 -19 -6 -35 -11 -35 -4 0 -6 7 -2 15 3
8 2 15 -3 15 -5 0 -9 -23 -10 -50 0 -31 3 -49 9 -45 6 3 10 -3 10 -14 0 -12
-7 -21 -15 -21 -8 0 -15 -5 -15 -11 0 -6 6 -9 14 -6 22 9 28 -5 10 -24 -8 -9
-11 -20 -6 -23 5 -3 7 -19 4 -35 -3 -20 -8 -28 -16 -24 -6 4 -5 -1 3 -10 7 -9
10 -17 5 -17 -5 0 -2 -5 6 -10 8 -5 10 -10 4 -10 -8 0 -11 -21 -10 -60 0 -33
-2 -60 -6 -60 -8 0 -5 -21 5 -36 3 -6 3 -14 -1 -18 -11 -12 -10 -160 2 -175 8
-11 8 -13 -1 -7 -7 4 -13 2 -13 -3 0 -6 10 -11 23 -12 21 -1 21 -1 -3 -9 -24
-8 -24 -8 -3 -9 16 -1 21 -5 16 -17 -5 -13 -7 -13 -14 -2 -7 10 -9 9 -9 -4 0
-9 -5 -18 -12 -20 -7 -3 -5 -7 6 -11 10 -4 15 -3 11 3 -3 6 -1 10 4 10 13 0
14 -10 12 -69 -2 -33 1 -41 11 -36 10 6 11 5 1 -6 -7 -7 -13 -17 -13 -22 0 -4
6 -5 13 -1 8 5 8 2 -2 -9 -10 -13 -10 -17 -1 -17 9 0 10 -3 1 -13 -8 -10 -7
-17 2 -27 9 -10 9 -11 0 -6 -9 5 -13 0 -13 -14 0 -13 4 -19 12 -14 7 5 8 3 3
-6 -4 -7 -9 -54 -11 -104 -1 -50 -4 -120 -7 -156 -3 -36 -3 -55 0 -42 2 12 7
22 11 22 4 0 7 24 8 53 2 86 7 136 15 132 3 -3 5 -17 3 -32 -3 -30 -5 -139 -3
-163 1 -8 0 -19 -2 -25 -2 -5 0 -11 5 -13 5 -1 10 10 12 25 1 16 6 60 10 98 4
39 7 75 5 82 -1 6 3 14 9 18 11 7 6 -139 -6 -177 -3 -10 0 -18 7 -18 8 0 8 -4
-1 -15 -7 -9 -10 -18 -7 -22 4 -3 2 -14 -4 -24 -5 -11 -6 -19 -1 -19 5 0 6
-17 2 -39 -5 -30 -4 -41 6 -45 9 -4 13 2 13 17 -1 12 1 45 4 72 7 59 20 206
23 255 1 19 3 35 4 35 2 0 6 43 14 148 3 43 7 81 10 86 3 4 6 27 7 50 2 23 7
45 11 48 5 2 4 11 -3 19 -8 10 -8 14 0 14 6 0 11 -3 12 -7 4 -39 4 -63 -1 -63
-3 0 -5 -18 -6 -40 -1 -24 3 -37 9 -33 6 4 8 0 4 -9 -3 -9 2 -26 10 -39 10
-13 11 -19 4 -14 -10 5 -11 2 -6 -14 4 -12 2 -28 -5 -36 -8 -9 -8 -15 0 -20 6
-4 9 -3 8 2 -2 4 2 8 7 8 6 0 9 -4 7 -8 -1 -5 2 -6 7 -3 5 4 14 -1 19 -10 8
-15 10 -15 15 0 4 10 3 15 -3 11 -6 -4 -9 -1 -8 7 2 7 -3 12 -10 10 -8 -1 -11
2 -6 9 4 7 3 9 -4 5 -6 -3 -9 1 -7 11 2 10 4 21 4 26 1 4 6 7 12 7 8 0 7 -6
-2 -17 -12 -15 -12 -16 3 -10 13 4 15 2 11 -11 -6 -15 -4 -15 10 -4 8 8 13 21
11 30 -4 13 -3 13 6 -2 7 -10 8 -21 3 -25 -4 -3 -9 -30 -10 -59 -2 -61 6 -64
13 -6 2 22 7 52 10 67 4 21 0 35 -15 51 -16 17 -18 23 -7 23 8 0 14 -3 13 -6
-1 -3 3 -7 8 -8 6 -2 10 9 10 25 -1 15 4 31 10 35 6 5 -1 6 -15 3 -24 -5 -24
-4 -5 10 13 10 20 27 21 53 0 21 4 43 7 48 4 6 1 14 -5 16 -10 4 -10 6 0 6 6
1 12 7 12 15 0 8 8 17 18 19 16 4 15 5 -1 6 -16 1 -18 8 -13 51 3 28 8 55 11
60 4 6 1 10 -5 10 -6 0 -8 5 -3 13 9 14 9 17 18 105 4 37 9 87 11 112 3 25 7
70 9 100 2 30 4 55 5 55 4 0 10 47 15 120 3 44 7 94 10 110 2 17 7 64 10 105
10 118 17 182 30 300 2 25 7 78 10 119 4 64 9 78 37 110 17 20 37 40 45 44 7
4 13 13 13 18 0 6 -5 7 -12 3 -7 -4 -8 -3 -4 4 4 6 14 8 23 5 13 -5 15 -2 10
11 -4 9 -3 15 2 12 7 -4 8 -81 1 -81 -1 0 -3 -20 -5 -45 -2 -25 -6 -66 -8 -93
-2 -26 -1 -47 3 -47 4 0 7 -7 7 -15 0 -8 -4 -12 -9 -9 -4 3 -8 -19 -8 -50 0
-34 5 -56 13 -59 7 -3 5 -6 -5 -6 -15 -1 -18 -10 -17 -53 0 -39 3 -48 9 -33 8
18 9 18 9 2 1 -10 -6 -20 -14 -23 -14 -6 -13 -8 2 -20 14 -11 14 -14 3 -12
-12 2 -16 -10 -18 -55 -2 -46 0 -57 10 -52 7 3 6 1 -3 -7 -9 -8 -16 -33 -18
-63 -1 -27 -4 -62 -7 -77 -2 -16 -1 -28 4 -28 7 0 12 31 15 87 0 7 3 10 6 9 7
-5 6 -64 -1 -71 -3 -3 -4 -19 -2 -35 2 -17 -1 -30 -7 -30 -6 0 -8 4 -4 9 3 5
1 12 -5 16 -6 4 -11 -12 -12 -42 -2 -75 -7 -158 -8 -158 -1 0 -3 -15 -4 -32
-2 -21 2 -33 10 -33 7 0 11 -13 9 -37 -1 -21 -3 -60 -4 -86 -1 -34 -4 -46 -13
-41 -7 5 -8 3 -2 -7 10 -16 12 -139 3 -133 -4 2 -6 -14 -4 -36 1 -22 -2 -40
-7 -40 -7 0 -7 -4 -1 -13 5 -6 7 -23 3 -37 -4 -14 -4 -34 0 -45 4 -11 6 -37 5
-59 -1 -29 3 -40 16 -43 12 -3 17 -13 15 -29 -3 -23 -14 -30 -26 -17 -3 4 1 3
9 -2 10 -6 12 -4 7 4 -5 7 -11 10 -14 6 -9 -9 -11 -36 -2 -30 14 8 32 -23 25
-45 -4 -13 -1 -22 9 -26 9 -3 16 -11 16 -16 0 -7 -5 -6 -13 0 -11 9 -13 3 -13
-28 0 -22 4 -40 9 -40 4 0 5 5 1 12 -5 7 -3 8 5 4 9 -6 8 -13 -5 -27 -13 -15
-14 -19 -3 -19 8 0 10 -3 4 -8 -6 -4 -11 -75 -12 -170 -1 -90 1 -162 3 -160 4
5 17 134 17 181 0 15 4 27 7 27 4 0 5 -50 4 -110 -1 -62 2 -110 7 -110 5 0 10
18 10 40 1 22 2 43 3 48 1 4 6 37 10 74 8 69 22 102 19 45 -1 -18 -2 -32 -3
-32 -2 0 -10 -182 -11 -235 -3 -140 16 -81 26 83 2 34 6 87 9 117 11 95 16
153 21 230 3 41 9 89 14 106 5 19 5 38 -1 49 -8 13 -7 16 1 11 7 -5 11 3 12
21 3 114 8 186 14 191 4 4 4 -39 1 -96 -4 -76 -3 -101 6 -96 6 4 4 -3 -5 -16
-12 -17 -13 -28 -6 -42 5 -10 6 -18 1 -18 -5 0 -9 -7 -9 -15 0 -18 9 -19 26
-3 11 11 11 9 0 -9 -7 -12 -17 -19 -21 -17 -15 9 -8 -3 9 -17 10 -8 14 -9 10
-2 -4 6 -3 14 2 17 11 7 9 -13 -3 -33 -6 -10 -5 -12 2 -7 12 7 15 -1 13 -44
-1 -25 -1 -25 9 -2 11 26 30 29 30 5 0 -15 -2 -16 -10 -3 -8 12 -10 11 -7 -5
1 -11 7 -20 12 -20 6 0 9 4 7 8 -1 5 1 6 6 3 5 -3 7 -24 5 -47 -2 -24 0 -39 4
-36 13 13 13 81 0 89 -9 5 -9 10 2 20 10 10 12 10 7 1 -4 -7 -2 -13 3 -13 6 0
12 19 12 43 3 68 6 101 12 117 4 8 9 44 11 80 2 36 7 84 11 108 5 32 4 42 -7
42 -10 0 -10 2 1 9 17 11 17 10 25 132 4 52 9 110 11 129 7 43 13 107 19 180
4 53 15 166 20 221 2 14 6 31 10 37 3 6 2 13 -4 17 -6 4 -8 10 -5 14 6 10 16
86 20 156 2 28 4 50 5 50 1 0 3 27 5 60 2 33 4 60 5 60 1 0 4 20 5 45 2 25 6
63 9 85 2 22 7 69 11 105 3 36 8 79 10 95 2 17 7 62 10 100 3 39 9 84 12 100
2 17 6 44 8 60 8 88 17 172 21 190 2 11 7 45 10 74 5 52 9 59 67 114 246 237
304 294 323 319 11 15 25 24 29 20 5 -4 5 -1 1 6 -6 10 -15 6 -35 -15 -16 -15
-26 -32 -23 -38 3 -5 2 -7 -3 -3 -4 4 -14 0 -21 -10 -7 -9 -15 -14 -18 -11 -4
3 14 26 38 49 46 45 85 72 72 51 -4 -6 -2 -11 4 -11 6 0 10 8 8 18 -2 9 8 29
23 45 32 32 44 35 27 8 -7 -11 -15 -18 -19 -15 -4 2 -9 -6 -13 -19 -4 -17 4
-12 34 21 40 43 53 65 25 42 -34 -28 -11 3 40 55 53 53 74 68 59 43 -4 -7 2
-4 14 6 23 20 30 32 12 21 -5 -3 -10 -3 -10 1 0 9 61 64 71 64 4 0 11 9 14 20
4 11 11 18 16 15 8 -6 13 8 10 27 0 5 3 7 8 5 5 -1 20 10 34 25 14 15 28 24
31 21 3 -4 6 -1 6 6 0 14 90 101 104 101 4 0 6 7 3 14 -4 10 -1 13 9 9 9 -3
14 1 14 12 0 9 4 14 9 11 5 -3 12 2 16 12 6 14 13 10 47 -28 28 -31 34 -35 19
-13 -12 18 -26 35 -31 38 -19 12 -9 36 30 75 22 22 38 40 35 40 -3 0 4 9 15
20 11 11 24 20 30 20 5 0 9 6 7 13 -1 6 4 11 11 9 8 -1 11 1 9 5 -3 5 1 14 9
21 8 7 14 9 14 5 0 -4 7 5 15 21 9 16 13 31 10 34 -3 3 -5 0 -5 -7 0 -7 -5 -9
-10 -6 -6 4 -9 3 -8 -2 3 -10 -33 -53 -44 -53 -5 0 -8 5 -8 11 0 5 5 7 10 4 6
-3 10 1 10 9 0 9 7 16 16 16 8 0 13 4 10 8 -3 5 8 19 25 31 16 12 27 26 24 32
-4 5 2 9 11 9 16 0 15 2 -2 22 -10 12 -14 19 -8 15 6 -3 24 7 39 23 21 22 32
27 41 19 10 -8 12 -6 9 10 -2 12 0 19 6 16 5 -4 9 -1 9 5 0 6 5 8 12 4 8 -5 9
-2 5 10 -4 9 -3 15 2 11 13 -8 43 24 34 38 -4 7 0 8 11 4 10 -4 15 -3 11 3 -3
6 -2 10 4 10 6 0 17 12 25 28 8 15 15 23 16 18 0 -11 40 29 40 40 0 4 11 17
25 30 14 13 25 28 25 34 0 5 3 9 8 9 4 -1 72 62 151 140 80 77 142 141 138
141 -8 0 -44 -31 -136 -117 -36 -35 -69 -63 -73 -63 -5 0 -8 -7 -8 -15 0 -8
-4 -14 -8 -13 -4 2 -19 -8 -33 -22 -14 -14 -45 -43 -69 -65 -25 -22 21 28 102
110 180 183 178 181 172 188 -3 3 3 8 13 11 10 3 24 15 31 27 13 20 13 21 -7
7 -17 -12 -197 -178 -289 -266 -13 -13 -26 -22 -28 -20 -2 2 62 69 141 149 80
80 145 143 145 141 0 -2 23 20 50 49 28 29 50 54 50 56 0 2 14 17 32 33 17 16
29 32 26 35 -2 3 -32 -21 -66 -52 -33 -32 -124 -119 -202 -193 -77 -74 -145
-136 -151 -138 -5 -2 -9 -11 -9 -20 0 -8 -3 -13 -6 -9 -3 3 -28 -16 -56 -44
-27 -27 -53 -49 -58 -49 -5 0 -12 -9 -15 -20 -4 -11 -10 -18 -15 -15 -5 3 -12
-4 -15 -16 -4 -11 -9 -19 -11 -16 -3 2 -31 -22 -63 -54 -32 -33 -63 -59 -69
-59 -10 0 -26 -29 -23 -43 1 -5 -3 -6 -9 -2 -5 3 -40 -23 -77 -59 -37 -36 -70
-62 -73 -59 -3 3 1 8 8 10 10 4 10 8 0 21 -12 15 -11 15 4 4 14 -11 18 -10 29
10 7 13 12 27 11 31 -1 5 3 5 9 1 9 -5 10 -2 6 9 -3 9 -2 19 4 22 5 4 9 3 8
-2 -4 -22 2 -25 15 -7 11 15 12 22 3 34 -10 13 -10 13 5 2 20 -16 42 -7 34 14
-3 8 -2 13 2 13 21 -3 29 3 28 24 -1 14 4 21 13 19 9 -2 11 3 7 14 -6 15 -4
15 11 3 9 -8 14 -9 10 -2 -9 14 42 65 56 56 6 -4 7 -1 2 6 -7 13 32 48 48 43
5 -1 5 2 2 8 -5 8 -13 6 -24 -4 -24 -22 -38 -20 -17 3 20 22 29 61 14 61 -6 0
-2 10 10 23 12 13 20 26 17 29 -3 3 1 11 10 18 8 7 15 17 15 22 0 10 -5 6 -99
-78 -96 -88 -131 -122 -131 -129 0 -4 8 -1 18 6 14 11 13 10 -2 -9 -20 -23
-32 -30 -21 -12 3 6 -1 10 -10 10 -9 0 -13 -4 -10 -10 3 -5 -2 -10 -12 -10
-17 -1 -17 -1 0 -11 9 -5 22 -7 29 -3 7 4 8 3 4 -4 -4 -7 -17 -9 -30 -6 -16 4
-31 -2 -50 -19 -14 -13 -22 -27 -18 -31 4 -4 3 -6 -3 -5 -14 4 -55 -24 -55
-37 0 -7 -7 -15 -16 -18 -8 -3 -13 -10 -10 -15 3 -5 -2 -8 -12 -7 -10 0 -17
-6 -16 -16 1 -10 -4 -14 -12 -11 -7 2 -19 -5 -26 -16 -7 -12 -18 -21 -25 -21
-12 0 -17 -13 -14 -33 1 -5 -3 -6 -8 -3 -5 4 -14 -2 -20 -11 -6 -10 -11 -14
-11 -10 0 4 -13 -5 -28 -20 -22 -22 -26 -31 -18 -43 10 -13 9 -13 -7 -1 -20
15 -27 12 -31 -16 -2 -10 -8 -18 -15 -18 -11 0 -124 -102 -250 -227 -27 -26
-51 -45 -54 -42 -3 3 -8 -3 -11 -14 -4 -10 -17 -25 -31 -32 -13 -7 -22 -17
-19 -22 3 -4 0 -8 -6 -8 -5 0 -53 -42 -105 -93 -52 -52 -95 -92 -95 -90 0 1
-23 -20 -51 -47 -28 -28 -55 -50 -60 -50 -5 0 -9 -7 -9 -15 0 -8 -3 -15 -8
-15 -4 0 -39 -31 -79 -69 -40 -38 -81 -72 -92 -76 -12 -3 -21 -12 -21 -18 0
-7 -4 -6 -10 3 -8 12 -10 12 -10 1 0 -11 -3 -11 -15 -1 -8 7 -15 8 -15 3 0 -6
-11 -9 -24 -8 -15 2 -32 -6 -45 -19 -25 -27 -64 -113 -56 -125 3 -5 1 -12 -5
-16 -6 -4 -8 -10 -5 -15 3 -4 -9 -20 -26 -34 -17 -14 -27 -26 -22 -27 4 0 -2
-4 -14 -9 -13 -5 -23 -17 -23 -25 0 -9 -4 -13 -10 -10 -5 3 -10 1 -10 -5 0 -6
-5 -8 -10 -5 -6 4 -8 10 -6 14 3 4 7 28 10 52 16 160 14 153 82 219 35 33 64
66 64 72 0 6 -27 -16 -60 -50 -33 -34 -63 -62 -67 -62 -5 0 1 7 11 15 11 8 17
15 15 15 -3 0 58 63 136 140 77 77 145 140 150 140 6 -1 -3 -12 -20 -25 -16
-14 -25 -25 -20 -25 18 0 104 89 92 94 -8 3 -3 12 12 25 12 12 28 18 35 14 6
-4 5 0 -2 9 -11 14 -10 17 7 23 12 3 21 11 21 16 0 5 5 9 11 9 5 0 7 -5 3 -12
-4 -6 -3 -8 4 -4 6 3 9 15 7 26 -2 11 0 20 6 20 12 0 49 37 49 50 0 6 4 9 8 8
11 -4 62 48 62 63 0 7 3 10 6 6 7 -7 50 35 47 45 -2 5 3 7 10 5 6 -1 11 4 10
10 -2 7 1 12 6 10 5 -1 27 17 49 40 22 23 43 39 47 35 5 -4 6 1 2 10 -3 10 0
19 9 22 9 3 12 10 9 16 -3 6 1 7 10 4 9 -4 15 -2 13 3 -2 6 11 24 29 40 18 17
29 33 26 37 -6 5 12 10 29 7 5 0 7 2 7 7 -3 20 2 33 11 27 6 -4 9 -3 8 2 -2 5
18 30 44 56 26 26 44 47 39 47 -4 0 -16 -9 -26 -20 -25 -27 -39 -25 -20 3 8
13 12 27 8 31 -5 4 -3 7 2 5 6 -1 18 1 28 6 14 6 15 10 6 21 -19 23 18 6 76
-34 48 -32 41 -25 -33 38 -19 17 -29 31 -23 35 6 3 11 1 11 -6 0 -8 7 -5 20 6
11 10 18 20 16 24 -2 3 6 15 17 26 11 11 16 14 12 6 -5 -9 -4 -12 3 -7 7 4 12
12 12 17 0 16 27 39 35 31 5 -4 5 1 2 11 -4 10 -2 17 6 17 7 0 23 15 37 32 14
18 96 104 183 191 88 87 157 160 155 162 -2 2 -42 -34 -90 -80 -48 -46 -89
-81 -92 -77 -3 3 -6 -2 -6 -12 0 -10 -5 -14 -12 -10 -7 4 -8 3 -4 -4 4 -7 2
-12 -4 -12 -7 0 -25 -14 -41 -31 -16 -17 -29 -27 -29 -22 0 5 45 53 100 106
55 52 100 100 100 106 0 6 7 11 16 11 8 0 13 4 10 8 -3 5 6 19 19 30 14 12 25
27 25 32 0 11 -44 -27 -136 -118 -30 -29 -54 -51 -54 -49 0 2 -29 -23 -64 -57
-91 -87 -117 -108 -71 -56 22 25 76 79 120 120 44 41 92 89 105 107 14 17 37
39 52 49 15 10 25 20 23 22 -2 2 13 18 33 35 20 18 45 42 55 55 10 12 24 28
30 35 22 22 40 47 35 47 -3 0 -19 -14 -37 -30z m-586 -400 c-10 -11 -22 -17
-27 -14 -5 3 -1 12 9 20 27 20 39 17 18 -6z m757 -22 c-15 -17 -18 -28 -11
-39 6 -12 3 -24 -11 -42 -11 -13 -16 -27 -13 -31 3 -3 1 -6 -6 -6 -7 0 -10 -4
-7 -9 3 -5 -2 -15 -11 -22 -15 -12 -16 -12 -10 4 22 55 22 53 -1 33 -12 -10
-20 -21 -19 -25 1 -3 -2 -8 -7 -11 -5 -3 -10 3 -12 13 -1 11 0 16 3 13 3 -3
17 6 30 20 23 25 23 27 6 41 -10 8 -12 12 -5 8 6 -3 12 -2 12 2 0 14 58 73 71
73 7 0 4 -9 -9 -22z m-806 -29 c1 -5 2 -14 3 -20 0 -5 6 -7 11 -4 6 4 8 10 6
14 -3 4 2 8 10 8 9 0 1 -15 -23 -41 -21 -22 -39 -43 -40 -45 -2 -2 -6 -1 -10
2 -3 4 2 13 12 21 10 7 20 23 22 35 3 23 -12 29 -20 9 -4 -10 -6 -10 -6 0 -1
7 6 15 14 18 8 4 12 11 8 18 -3 6 -2 7 3 3 5 -5 10 -13 10 -18z m249 -29 c-10
-11 -22 -20 -28 -20 -5 0 1 9 14 20 31 25 37 25 14 0z m725 10 c0 -5 -10 -15
-22 -21 l-23 -12 20 21 c23 24 25 25 25 12z m-245 -30 c3 -6 -1 -7 -9 -4 -18
7 -21 14 -7 14 6 0 13 -4 16 -10z m-532 -34 c-10 -13 -20 -22 -22 -20 -4 4 29
44 36 44 2 0 -4 -11 -14 -24z m503 12 c4 -7 4 -10 -1 -6 -4 4 -15 2 -24 -5
-14 -11 -14 -10 -2 6 16 20 18 21 27 5z m-784 -5 c-6 -2 -10 -9 -7 -13 3 -5 1
-11 -4 -14 -7 -5 -8 11 -2 32 1 1 7 2 14 1 9 0 9 -2 -1 -6z m31 -26 c3 -7 -3
-13 -14 -13 -13 0 -15 3 -7 13 6 7 12 13 13 13 2 0 5 -6 8 -13z m-77 -19 c4
-7 3 -8 -4 -4 -7 4 -12 0 -12 -10 0 -10 -3 -15 -6 -11 -7 6 2 37 10 37 3 0 8
-5 12 -12z m1083 9 c-2 -1 -13 -9 -24 -17 -19 -14 -19 -14 -6 3 7 9 18 17 24
17 6 0 8 -1 6 -3z m-1039 -21 c0 -3 -4 -8 -10 -11 -5 -3 -10 -1 -10 4 0 6 5
11 10 11 6 0 10 -2 10 -4z m31 -13 c13 -16 12 -17 -3 -4 -17 13 -22 21 -14 21
2 0 10 -8 17 -17z m749 8 c0 -5 -10 -11 -22 -14 -22 -6 -22 -6 -4 8 23 17 26
18 26 6z m-863 -16 c0 -8 -4 -12 -9 -9 -5 3 -6 10 -3 15 9 13 12 11 12 -6z
m48 -5 c-3 -5 -12 -10 -18 -10 -7 0 -6 4 3 10 19 12 23 12 15 0z m711 -22 c4
-7 3 -10 -1 -5 -5 4 -18 -1 -29 -10 -21 -18 -21 -18 -2 5 22 26 23 26 32 10z
m69 -18 c3 -6 -1 -7 -9 -4 -18 7 -21 14 -7 14 6 0 13 -4 16 -10z m-614 -33
c-10 -9 -11 -8 -5 6 3 10 9 15 12 12 3 -3 0 -11 -7 -18z m-251 -1 c0 -3 -4 -8
-10 -11 -5 -3 -10 -1 -10 4 0 6 5 11 10 11 6 0 10 -2 10 -4z m54 -5 c3 -5 -2
-15 -12 -22 -15 -12 -16 -12 -5 2 7 9 10 19 6 22 -3 4 -4 7 0 7 3 0 8 -4 11
-9z m676 -16 c-7 -9 -15 -13 -18 -10 -3 3 -12 -1 -21 -8 -14 -11 -14 -10 -2 5
7 10 17 16 21 13 5 -3 11 -1 15 5 3 5 9 10 12 10 3 0 0 -7 -7 -15z m25 -14 c3
-5 2 -12 -3 -15 -5 -3 -9 1 -9 9 0 17 3 19 12 6z m-778 -16 c0 -8 -4 -12 -9
-9 -5 3 -6 10 -3 15 9 13 12 11 12 -6z m743 -11 c0 -8 -19 -13 -24 -6 -3 5 1
9 9 9 8 0 15 -2 15 -3z m-863 -29 c0 -8 -4 -12 -9 -9 -5 3 -6 10 -3 15 9 13
12 11 12 -6z m816 -10 c-3 -9 -8 -14 -10 -11 -3 3 -2 9 2 15 9 16 15 13 8 -4z
m-530 -99 c-15 -17 -29 -33 -31 -35 -1 -3 -6 0 -10 5 -4 5 -6 8 -4 7 6 -3 38
33 45 51 4 9 12 14 18 11 7 -5 0 -19 -18 -39z m567 29 c0 -10 -143 -146 -147
-141 -6 6 107 116 119 116 4 0 8 7 8 15 0 8 5 15 10 15 6 0 10 -2 10 -5z
m-659 -108 c-10 -9 -11 -8 -5 6 3 10 9 15 12 12 3 -3 0 -11 -7 -18z m-226 -7
c-3 -5 -12 -10 -18 -10 -7 0 -6 4 3 10 19 12 23 12 15 0z m632 -25 c0 -8 -4
-12 -9 -9 -5 3 -6 10 -3 15 9 13 12 11 12 -6z m-882 -505 c-10 -11 -20 -18
-23 -15 -7 6 18 35 31 35 5 0 2 -9 -8 -20z m289 -475 c-82 -80 -152 -145 -156
-145 -4 0 25 32 65 70 39 39 77 75 82 81 6 5 23 22 39 37 16 15 45 44 64 65
19 20 40 37 45 37 5 0 -57 -65 -139 -145z m-1204 -418 c0 -2 -12 -14 -27 -28
l-28 -24 24 28 c23 25 31 32 31 24z m587 -369 c-3 -8 -6 -5 -6 6 -1 11 2 17 5
13 3 -3 4 -12 1 -19z m-20 -265 c-3 -10 -5 -4 -5 12 0 17 2 24 5 18 2 -7 2
-21 0 -30z m-501 -133 c-1 -33 -4 -60 -8 -60 -3 0 -6 27 -5 60 1 33 4 60 7 60
3 0 6 -27 6 -60z m491 -22 c-3 -8 -6 -5 -6 6 -1 11 2 17 5 13 3 -3 4 -12 1
-19z m-501 -89 c1 -16 -2 -29 -6 -29 -4 0 -6 15 -6 34 1 41 10 37 12 -5z m497
1 c-3 -12 -8 -19 -11 -16 -5 6 5 36 12 36 2 0 2 -9 -1 -20z m-516 -212 c-3 -7
-5 -2 -5 12 0 14 2 19 5 13 2 -7 2 -19 0 -25z m500 0 c-3 -7 -5 -2 -5 12 0 14
2 19 5 13 2 -7 2 -19 0 -25z m-2217 -18 c0 -5 -2 -10 -4 -10 -3 0 -8 5 -11 10
-3 6 -1 10 4 10 6 0 11 -4 11 -10z m2218 -45 c-1 -25 -5 -48 -9 -51 -5 -2 -6
17 -4 43 4 55 4 53 9 53 2 0 4 -20 4 -45z m-2114 -71 c3 -8 2 -12 -4 -9 -6 3
-10 10 -10 16 0 14 7 11 14 -7z m2105 -26 c-1 -31 -1 -31 -8 -8 -5 14 -6 28
-4 33 9 15 13 6 12 -25z m-314 -325 c3 -18 1 -34 -4 -38 -6 -3 -10 12 -9 35 0
47 5 48 13 3z m-6 -99 c-5 -6 -7 -14 -4 -17 3 -4 2 -5 -2 -2 -4 3 -8 19 -9 36
-2 28 -1 29 11 12 8 -11 10 -22 4 -29z m95 -102 c3 -5 -1 -9 -9 -9 -8 0 -12 4
-9 9 3 4 7 8 9 8 2 0 6 -4 9 -8z m-234 -27 c-7 -8 -8 -20 -4 -27 5 -10 4 -10
-6 -1 -10 9 -10 15 -2 26 7 8 8 18 4 22 -4 5 -1 5 6 1 10 -6 10 -11 2 -21z
m170 21 c0 -3 -4 -8 -10 -11 -5 -3 -10 -1 -10 4 0 6 5 11 10 11 6 0 10 -2 10
-4z m34 -14 c3 -5 -1 -9 -9 -9 -8 0 -12 4 -9 9 3 4 7 8 9 8 2 0 6 -4 9 -8z
m-17 -41 c0 -11 -5 -18 -9 -15 -4 3 -5 11 -1 19 7 21 12 19 10 -4z m460 -116
c0 -8 -4 -15 -9 -15 -10 0 -11 14 -1 23 9 10 10 9 10 -8z m71 -9 c-7 -8 -15
-12 -17 -11 -5 6 10 25 20 25 5 0 4 -6 -3 -14z m-700 -51 c-3 -3 -9 2 -12 12
-6 14 -5 15 5 6 7 -7 10 -15 7 -18z m702 15 c0 -5 -5 -10 -11 -10 -5 0 -7 5
-4 10 3 6 8 10 11 10 2 0 4 -4 4 -10z m-666 -50 c-6 -6 -10 -3 -10 10 0 13 4
16 10 10 7 -7 7 -13 0 -20z m665 -4 c-3 -3 -11 5 -18 17 -13 21 -12 21 5 5 10
-10 16 -20 13 -22z m-709 -6 c0 -5 -5 -10 -11 -10 -5 0 -7 5 -4 10 3 6 8 10
11 10 2 0 4 -4 4 -10z m500 -114 c0 -3 -4 -8 -10 -11 -5 -3 -10 -1 -10 4 0 6
5 11 10 11 6 0 10 -2 10 -4z m37 -33 c-3 -10 -5 -4 -5 12 0 17 2 24 5 18 2 -7
2 -21 0 -30z m-42 -12 c3 -5 1 -12 -5 -16 -5 -3 -10 1 -10 9 0 18 6 21 15 7z"/>
<path d="M4316 4703 c-4 -9 -1 -20 6 -25 10 -6 10 -8 1 -8 -7 0 -13 -5 -13
-12 0 -24 24 11 26 37 1 28 -11 33 -20 8z"/>
<path d="M3670 4860 c-9 -6 -10 -10 -3 -10 6 0 15 5 18 10 8 12 4 12 -15 0z"/>
<path d="M4439 4843 l-24 -28 28 24 c25 23 32 31 24 31 -2 0 -14 -12 -28 -27z"/>
<path d="M3670 4719 c0 -5 5 -7 10 -4 6 3 10 8 10 11 0 2 -4 4 -10 4 -5 0 -10
-5 -10 -11z"/>
<path d="M2518 4693 c7 -3 16 -2 19 1 4 3 -2 6 -13 5 -11 0 -14 -3 -6 -6z"/>
<path d="M2583 4693 c9 -2 23 -2 30 0 6 3 -1 5 -18 5 -16 0 -22 -2 -12 -5z"/>
<path d="M2638 4693 c7 -3 16 -2 19 1 4 3 -2 6 -13 5 -11 0 -14 -3 -6 -6z"/>
<path d="M2678 4693 c7 -3 16 -2 19 1 4 3 -2 6 -13 5 -11 0 -14 -3 -6 -6z"/>
<path d="M2718 4693 c7 -3 16 -2 19 1 4 3 -2 6 -13 5 -11 0 -14 -3 -6 -6z"/>
<path d="M2418 4683 c7 -3 16 -2 19 1 4 3 -2 6 -13 5 -11 0 -14 -3 -6 -6z"/>
<path d="M2458 4683 c6 -2 18 -2 25 0 6 3 1 5 -13 5 -14 0 -19 -2 -12 -5z"/>
<path d="M2838 4683 c7 -3 16 -2 19 1 4 3 -2 6 -13 5 -11 0 -14 -3 -6 -6z"/>
<path d="M2378 4673 c7 -3 16 -2 19 1 4 3 -2 6 -13 5 -11 0 -14 -3 -6 -6z"/>
<path d="M2910 4676 c0 -2 15 -6 34 -8 19 -2 32 0 30 4 -5 8 -64 12 -64 4z"/>
<path d="M2318 4663 c6 -2 18 -2 25 0 6 3 1 5 -13 5 -14 0 -19 -2 -12 -5z"/>
<path d="M2258 4653 c7 -3 16 -2 19 1 4 3 -2 6 -13 5 -11 0 -14 -3 -6 -6z"/>
<path d="M3028 4653 c6 -2 18 -2 25 0 6 3 1 5 -13 5 -14 0 -19 -2 -12 -5z"/>
<path d="M3078 4643 c7 -3 16 -2 19 1 4 3 -2 6 -13 5 -11 0 -14 -3 -6 -6z"/>
<path d="M2188 4633 c7 -3 16 -2 19 1 4 3 -2 6 -13 5 -11 0 -14 -3 -6 -6z"/>
<path d="M3118 4633 c7 -3 16 -2 19 1 4 3 -2 6 -13 5 -11 0 -14 -3 -6 -6z"/>
<path d="M2100 4610 c-8 -5 -10 -10 -5 -10 6 0 17 5 25 10 8 5 11 10 5 10 -5
0 -17 -5 -25 -10z"/>
<path d="M3220 4600 c8 -5 22 -9 30 -9 10 0 8 3 -5 9 -27 12 -43 12 -25 0z"/>
<path d="M3550 4599 c0 -5 5 -7 10 -4 6 3 10 8 10 11 0 2 -4 4 -10 4 -5 0 -10
-5 -10 -11z"/>
<path d="M2030 4585 c-14 -8 -20 -14 -15 -14 6 0 21 6 35 14 14 8 21 14 15 14
-5 0 -21 -6 -35 -14z"/>
<path d="M1960 4555 c-14 -8 -20 -14 -14 -15 5 0 19 7 30 15 24 18 16 19 -16
0z"/>
<path d="M1905 4530 c-3 -6 1 -7 9 -4 18 7 21 14 7 14 -6 0 -13 -4 -16 -10z"/>
<path d="M4243 4515 c0 -8 4 -12 9 -9 5 3 6 10 3 15 -9 13 -12 11 -12 -6z"/>
<path d="M1848 4504 c-39 -21 -35 -28 5 -8 37 19 44 24 31 24 -5 -1 -21 -8
-36 -16z"/>
<path d="M1790 4470 c-9 -6 -10 -10 -3 -10 6 0 15 5 18 10 8 12 4 12 -15 0z"/>
<path d="M1709 4419 l-24 -20 28 17 c15 9 27 18 27 20 0 8 -8 4 -31 -17z"/>
<path d="M4305 4370 c-16 -16 -24 -30 -17 -30 13 0 52 39 52 52 0 13 -4 10
-35 -22z"/>
<path d="M1597 4344 c-50 -39 -66 -59 -19 -25 49 37 77 61 71 61 -3 0 -27 -16
-52 -36z"/>
<path d="M3715 4344 c6 -5 23 -20 40 -34 29 -24 29 -24 10 -2 -11 13 -29 28
-40 34 -11 6 -15 6 -10 2z"/>
<path d="M4271 4291 c-13 -10 -20 -20 -15 -23 5 -2 19 6 31 19 27 27 18 30
-16 4z"/>
<path d="M1491 4260 c-13 -11 -19 -20 -14 -20 6 0 18 9 28 20 23 25 17 25 -14
0z"/>
<path d="M1390 4163 l-35 -35 37 28 c21 16 38 32 38 37 0 11 -2 9 -40 -30z"/>
<path d="M1324 4088 l-29 -33 33 29 c30 28 37 36 29 36 -2 0 -16 -15 -33 -32z"/>
<path d="M1274 4028 c-30 -34 -47 -58 -42 -58 3 0 19 18 37 40 34 43 38 55 5
18z"/>
<path d="M1188 3913 c-41 -58 -50 -73 -45 -73 2 0 23 27 46 60 23 33 40 60 38
60 -3 0 -20 -21 -39 -47z"/>
<path d="M4125 3906 c10 -14 19 -26 22 -26 7 0 -17 39 -28 46 -6 3 -3 -5 6
-20z"/>
<path d="M4159 3855 c5 -11 17 -29 26 -40 l16 -20 -10 20 c-5 11 -17 29 -26
40 l-16 20 10 -20z"/>
<path d="M1126 3813 c-6 -14 -5 -15 5 -6 7 7 10 15 7 18 -3 3 -9 -2 -12 -12z"/>
<path d="M1100 3770 c-6 -11 -8 -20 -6 -20 3 0 10 9 16 20 6 11 8 20 6 20 -3
0 -10 -9 -16 -20z"/>
<path d="M4210 3770 c6 -11 13 -20 16 -20 2 0 0 9 -6 20 -6 11 -13 20 -16 20
-2 0 0 -9 6 -20z"/>
<path d="M1061 3693 c-10 -26 -10 -27 4 -9 8 11 15 23 15 28 0 15 -7 8 -19
-19z"/>
<path d="M4257 3675 c9 -19 18 -33 21 -31 4 5 -26 66 -33 66 -3 0 3 -16 12
-35z"/>
<path d="M3634 3606 c-10 -8 -17 -16 -14 -19 3 -2 14 4 24 14 23 22 18 25 -10
5z"/>
<path d="M1012 3585 c-17 -37 -14 -45 4 -12 9 16 14 31 11 33 -2 2 -9 -7 -15
-21z"/>
<path d="M4290 3605 c0 -5 5 -17 10 -25 5 -8 10 -10 10 -5 0 6 -5 17 -10 25
-5 8 -10 11 -10 5z"/>
<path d="M2820 3574 c-13 -13 -21 -24 -16 -24 13 0 57 38 49 43 -4 2 -19 -6
-33 -19z"/>
<path d="M3590 3565 c-8 -9 -8 -15 -2 -15 12 0 26 19 19 26 -2 2 -10 -2 -17
-11z"/>
<path d="M2780 3528 c0 -4 4 -8 9 -8 6 0 12 4 15 8 3 5 -1 9 -9 9 -8 0 -15 -4
-15 -9z"/>
<path d="M986 3515 c-9 -26 -7 -32 5 -12 6 10 9 21 6 23 -2 3 -7 -2 -11 -11z"/>
<path d="M4320 3525 c0 -5 5 -17 10 -25 5 -8 10 -10 10 -5 0 6 -5 17 -10 25
-5 8 -10 11 -10 5z"/>
<path d="M2740 3490 c-12 -16 -17 -30 -12 -30 5 0 15 11 22 25 7 13 18 22 23
18 6 -3 7 -1 3 5 -10 17 -12 16 -36 -18z"/>
<path d="M967 3461 c-4 -17 -3 -21 5 -13 5 5 8 16 6 23 -3 8 -7 3 -11 -10z"/>
<path d="M4341 3464 c0 -11 3 -14 6 -6 3 7 2 16 -1 19 -3 4 -6 -2 -5 -13z"/>
<path d="M4350 3435 c0 -5 5 -17 10 -25 5 -8 10 -10 10 -5 0 6 -5 17 -10 25
-5 8 -10 11 -10 5z"/>
<path d="M943 3385 c-3 -9 -3 -18 -1 -21 3 -3 8 4 11 16 6 23 -1 27 -10 5z"/>
<path d="M4367 3369 c4 -13 8 -18 11 -10 2 7 -1 18 -6 23 -8 8 -9 4 -5 -13z"/>
<path d="M932 3330 c0 -14 2 -19 5 -12 2 6 2 18 0 25 -3 6 -5 1 -5 -13z"/>
<path d="M921 3284 c0 -11 3 -14 6 -6 3 7 2 16 -1 19 -3 4 -6 -2 -5 -13z"/>
<path d="M911 3238 c0 -9 -4 -25 -7 -35 -5 -17 -5 -17 6 0 6 10 9 25 7 35 -4
15 -5 15 -6 0z"/>
<path d="M4402 3230 c0 -14 2 -19 5 -12 2 6 2 18 0 25 -3 6 -5 1 -5 -13z"/>
<path d="M4412 3180 c0 -14 2 -19 5 -12 2 6 2 18 0 25 -3 6 -5 1 -5 -13z"/>
<path d="M901 3164 c0 -11 3 -14 6 -6 3 7 2 16 -1 19 -3 4 -6 -2 -5 -13z"/>
<path d="M892 3110 c0 -14 2 -19 5 -12 2 6 2 18 0 25 -3 6 -5 1 -5 -13z"/>
<path d="M4422 3105 c0 -16 2 -22 5 -12 2 9 2 23 0 30 -3 6 -5 -1 -5 -18z"/>
<path d="M887 3061 c-4 -17 -3 -21 5 -13 5 5 8 16 6 23 -3 8 -7 3 -11 -10z"/>
<path d="M2090 2855 c-11 -13 -10 -14 4 -9 9 3 16 10 16 15 0 13 -6 11 -20 -6z"/>
<path d="M882 2825 c0 -16 2 -22 5 -12 2 9 2 23 0 30 -3 6 -5 -1 -5 -18z"/>
<path d="M4432 2820 c0 -14 2 -19 5 -12 2 6 2 18 0 25 -3 6 -5 1 -5 -13z"/>
<path d="M4432 2770 c0 -14 2 -19 5 -12 2 6 2 18 0 25 -3 6 -5 1 -5 -13z"/>
<path d="M891 2734 c0 -11 3 -14 6 -6 3 7 2 16 -1 19 -3 4 -6 -2 -5 -13z"/>
<path d="M4424 2716 c-3 -8 -4 -23 -2 -33 3 -11 6 -6 9 15 6 34 2 42 -7 18z"/>
<path d="M892 2670 c0 -14 2 -19 5 -12 2 6 2 18 0 25 -3 6 -5 1 -5 -13z"/>
<path d="M902 2620 c0 -14 2 -19 5 -12 2 6 2 18 0 25 -3 6 -5 1 -5 -13z"/>
<path d="M4411 2594 c0 -11 3 -14 6 -6 3 7 2 16 -1 19 -3 4 -6 -2 -5 -13z"/>
<path d="M4401 2554 c0 -11 3 -14 6 -6 3 7 2 16 -1 19 -3 4 -6 -2 -5 -13z"/>
<path d="M910 2551 c0 -6 4 -13 10 -16 6 -3 7 1 4 9 -7 18 -14 21 -14 7z"/>
<path d="M4391 2504 c0 -11 3 -14 6 -6 3 7 2 16 -1 19 -3 4 -6 -2 -5 -13z"/>
<path d="M4381 2464 c0 -11 3 -14 6 -6 3 7 2 16 -1 19 -3 4 -6 -2 -5 -13z"/>
<path d="M940 2431 c0 -6 4 -13 10 -16 6 -3 7 1 4 9 -7 18 -14 21 -14 7z"/>
<path d="M4368 2415 c-4 -16 -9 -39 -12 -50 -4 -11 1 -5 9 14 9 18 14 41 13
50 -2 9 -7 3 -10 -14z"/>
<path d="M4336 2313 c-6 -14 -5 -15 5 -6 7 7 10 15 7 18 -3 3 -9 -2 -12 -12z"/>
<path d="M4325 2279 c-4 -6 -5 -12 -2 -15 2 -3 7 2 10 11 7 17 1 20 -8 4z"/>
<path d="M4306 2235 c-9 -26 -7 -32 5 -12 6 10 9 21 6 23 -2 3 -7 -2 -11 -11z"/>
<path d="M4286 2185 c-9 -26 -7 -32 5 -12 6 10 9 21 6 23 -2 3 -7 -2 -11 -11z"/>
<path d="M4266 2133 c-6 -14 -5 -15 5 -6 7 7 10 15 7 18 -3 3 -9 -2 -12 -12z"/>
<path d="M4246 2093 c-6 -14 -5 -15 5 -6 7 7 10 15 7 18 -3 3 -9 -2 -12 -12z"/>
<path d="M4223 2053 c-3 -10 -8 -22 -11 -27 -3 -5 0 -6 5 -3 11 7 25 47 17 47
-3 0 -7 -8 -11 -17z"/>
<path d="M4137 1903 c-24 -36 -28 -47 -12 -28 24 28 59 85 52 85 -1 0 -20 -26
-40 -57z"/>
<path d="M1170 1911 c5 -11 15 -23 21 -27 6 -3 3 5 -6 20 -20 30 -30 35 -15 7z"/>
<path d="M4047 1777 c-46 -59 -46 -60 -7 -17 37 39 66 80 58 80 -2 0 -25 -28
-51 -63z"/>
<path d="M3895 1612 c-55 -53 -120 -114 -145 -135 -25 -21 -16 -15 20 12 58
44 242 221 230 221 -3 0 -50 -44 -105 -98z"/>
<path d="M350 1640 c6 -11 13 -20 16 -20 2 0 0 9 -6 20 -6 11 -13 20 -16 20
-2 0 0 -9 6 -20z"/>
<path d="M1515 1521 c17 -18 50 -46 75 -62 25 -17 32 -20 16 -7 -17 13 -50 41
-75 63 -40 34 -42 35 -16 6z"/>
<path d="M2510 1465 c0 -8 4 -15 8 -15 5 0 9 7 9 15 0 8 -4 15 -9 15 -4 0 -8
-7 -8 -15z"/>
<path d="M1640 1426 c0 -2 14 -14 30 -26 17 -12 30 -19 30 -16 0 2 -13 14 -30
26 -16 12 -30 19 -30 16z"/>
<path d="M3640 1399 c-22 -18 -22 -19 -3 -10 12 6 25 16 28 21 9 15 3 12 -25
-11z"/>
<path d="M1710 1376 c0 -3 14 -12 30 -21 17 -9 30 -13 30 -11 0 3 -13 12 -30
21 -16 9 -30 13 -30 11z"/>
<path d="M3580 1359 c-22 -18 -22 -19 -3 -10 12 6 25 16 28 21 9 15 3 12 -25
-11z"/>
<path d="M1780 1337 c0 -7 72 -48 76 -44 2 2 -14 14 -36 26 -22 12 -40 20 -40
18z"/>
<path d="M3510 1320 c-9 -6 -10 -10 -3 -10 6 0 15 5 18 10 8 12 4 12 -15 0z"/>
<path d="M3450 1290 c-19 -11 -31 -19 -27 -20 11 0 67 29 67 35 0 7 -1 7 -40
-15z"/>
<path d="M1910 1260 c8 -5 20 -10 25 -10 6 0 3 5 -5 10 -8 5 -19 10 -25 10 -5
0 -3 -5 5 -10z"/>
<path d="M3390 1260 c-9 -6 -10 -10 -3 -10 6 0 15 5 18 10 8 12 4 12 -15 0z"/>
<path d="M1970 1235 c14 -8 32 -14 40 -14 8 0 0 6 -19 14 -42 19 -54 19 -21 0z"/>
<path d="M3320 1230 c-8 -5 -10 -10 -5 -10 6 0 17 5 25 10 8 5 11 10 5 10 -5
0 -17 -5 -25 -10z"/>
<path d="M3270 1210 c-8 -5 -10 -10 -5 -10 6 0 17 5 25 10 8 5 11 10 5 10 -5
0 -17 -5 -25 -10z"/>
<path d="M3138 1163 c7 -3 16 -2 19 1 4 3 -2 6 -13 5 -11 0 -14 -3 -6 -6z"/>
<path d="M3098 1153 c7 -3 16 -2 19 1 4 3 -2 6 -13 5 -11 0 -14 -3 -6 -6z"/>
<path d="M3058 1143 c7 -3 16 -2 19 1 4 3 -2 6 -13 5 -11 0 -14 -3 -6 -6z"/>
<path d="M3008 1133 c7 -3 16 -2 19 1 4 3 -2 6 -13 5 -11 0 -14 -3 -6 -6z"/>
<path d="M2958 1123 c6 -2 18 -2 25 0 6 3 1 5 -13 5 -14 0 -19 -2 -12 -5z"/>
<path d="M2398 1113 c6 -2 18 -2 25 0 6 3 1 5 -13 5 -14 0 -19 -2 -12 -5z"/>
<path d="M2875 1110 c-3 -6 1 -7 9 -4 18 7 21 14 7 14 -6 0 -13 -4 -16 -10z"/>
<path d="M2918 1113 c7 -3 16 -2 19 1 4 3 -2 6 -13 5 -11 0 -14 -3 -6 -6z"/>
<path d="M2508 898 c5 -5 16 -8 23 -6 8 3 3 7 -10 11 -17 4 -21 3 -13 -5z"/>
<path d="M2281 694 c0 -11 3 -14 6 -6 3 7 2 16 -1 19 -3 4 -6 -2 -5 -13z"/>
<path d="M2698 688 c5 -5 16 -8 23 -6 8 3 3 7 -10 11 -17 4 -21 3 -13 -5z"/>
<path d="M2730 620 c0 -5 5 -10 11 -10 5 0 7 5 4 10 -3 6 -8 10 -11 10 -2 0
-4 -4 -4 -10z"/>
<path d="M2756 593 c-6 -14 -5 -15 5 -6 7 7 10 15 7 18 -3 3 -9 -2 -12 -12z"/>
</g>
</svg>
